<?xml version="1.0" encoding="UTF-8"?><svg id="Layer_2" xmlns="http://www.w3.org/2000/svg" viewBox="0 0 323.98 172.93"><defs><style>.cls-1{fill:#00a6da;}.cls-2{fill:#060a03;}.cls-3{fill:#0082ca;}.cls-4{fill:#001689;}.cls-5{fill:#f32735;}.cls-6{fill:#e49ddc;}.cls-7{fill:#ffa193;}.cls-8{fill:#fff;}.cls-9{fill:#ff9a3f;}.cls-10{fill:#ffb777;}.cls-11{fill:#f0c4ea;}.cls-12{fill:#ff796c;}.cls-13{fill:#ff6b00;}.cls-14{fill:#86e274;}.cls-15{fill:#8d81c4;}.cls-16{fill:#cdf3c3;}.cls-17{fill:#abeb9c;}.cls-18{fill:#c028b9;}.cls-19{fill:#d774ce;}.cls-20{fill:#38d430;}.cls-21{fill:#5e54ac;}.cls-22{fill:#73bee4;}</style></defs><g id="Layer_1-2"><g><path class="cls-2" d="M297.38,43.41c-13.45-5.04-19.11-7.95-19.11-14.52,0-5.2,4.89-9.94,14.98-9.94,8.07,0,14.53,1.92,18.8,3.7,1.4,.58,2.99-.21,3.4-1.67l1.98-7.11c1.45-5.21-1.63-10.66-6.88-11.96-4.71-1.17-10.31-1.91-17-1.91-24.15,0-38.98,13.3-38.98,30.88,0,14.98,11.31,24.46,28.43,30.57,12.38,4.28,17.28,7.95,17.28,14.37s-5.66,11.16-16.36,11.16c-6.99,0-13.24-1.33-17.51-3.76-9.61-5.05-12.24-15.97-13.3-18.68l-17.41-55.88c-1.33-4.26-5.27-7.16-9.73-7.16h-16.38l-11.97,39.35h-16.63V9.84c0-4.77-3.87-8.64-8.64-8.64h-14.59V40.79h-38.37V9.84c0-4.77-3.87-8.64-8.64-8.64h-14.59V102.13c0,1.16,.94,2.1,2.1,2.1h19.04c1.16,0,2.1-.94,2.1-2.1V58.5h38.37v43.63c0,1.16,.94,2.1,2.1,2.1h19.03c1.16,0,2.1-.94,2.1-2.1V58.5h11.26l-6.38,20.98c-.38,1.23,.55,2.48,1.84,2.48h16.98c.87,0,1.63-.58,1.85-1.42l5.9-22.03h18.36l6.75,19.88c.83,2.1,4.98,14.77,15.88,21.43l.05-.05c7.36,4.61,17.36,6.33,29.05,6.33,28.28,0,41.43-14.67,41.43-31.95,0-14.52-8.41-24-26.6-30.73m-79.61-2.41c-.23,0-.4-.22-.33-.44l.74-2.65c1.04-3.7,1.99-8.54,2.94-12.33h.19c.95,3.79,2.09,8.54,3.22,12.33l.78,2.64c.07,.22-.1,.44-.33,.44h-7.2Z"/><path class="cls-8" d="M33.65,98.76c-2.66,0-5.29-.71-7.59-2.04-2.3-1.33-4.21-3.25-5.54-5.55l-9.2-15.98L2.09,59.5C.72,57.16,0,54.49,0,51.77c0-2.65,.71-5.25,2.04-7.54l9.2-15.91,8.93-15.97c1.29-2.31,3.18-4.25,5.45-5.61,2.31-1.36,4.94-2.08,7.61-2.08l17.83,.06,19.15-.07c1.32,0,2.62,.17,3.86,.51l.24-.43s3.29,1.9,3.41,1.98l3.25,1.93-.22,.39c.96,.95,1.79,2.02,2.46,3.19l9.25,16.03,9.2,15.82c1.33,2.29,2.04,4.9,2.05,7.56,0,2.66-.69,5.28-2,7.59l-12.36,21.63-5.86,10.27c-1.17,2.05-2.81,3.81-4.79,5.11l-.06,.07-.7,.4c-2.26,1.33-4.92,2.06-7.62,2.06H33.65Z"/><polygon class="cls-21" points="39.52 73.26 64.27 73.26 51.87 94.9 39.52 73.26"/><polygon class="cls-1" points="64.27 73.26 89.25 73.26 76.74 51.65 64.27 73.26"/><polyline class="cls-14" points="39.38 30.06 27.01 51.85 14.58 30.32 14.58 30.25 39.38 30.14"/><polyline class="cls-9" points="39.31 30.11 51.87 8.58 64.35 30.18 39.31 30.18"/><polygon class="cls-17" points="39.31 30.18 26.98 51.87 51.99 51.71 39.31 30.18"/><polygon class="cls-19" points="14.67 73.26 27.04 51.78 39.52 73.26 14.67 73.26"/><path class="cls-20" d="M14.58,30.25l-9.2,15.91c-1.01,1.74-1.51,3.68-1.51,5.61H27.04L14.58,30.25Z"/><path class="cls-5" d="M99.87,51.65c0-1.95-.52-3.89-1.53-5.63l-9.21-15.84-12.39,21.46h23.12Z"/><path class="cls-22" d="M76.07,93.34c1.67-.98,3.09-2.39,4.08-4.13l9.09-15.94h-24.98l11.8,20.08Z"/><path class="cls-18" d="M3.87,51.78c0,1.99,.51,3.98,1.56,5.75l9.24,15.72,12.37-21.48H3.87Z"/><path class="cls-3" d="M76.74,51.65l12.5,21.63,9.13-15.97c1-1.75,1.5-3.7,1.5-5.66h-23.12Z"/><path class="cls-15" d="M76.11,93.31c-1.7,.99-3.66,1.55-5.71,1.55l-18.53,.04,12.4-21.64,11.84,20.05Z"/><path class="cls-4" d="M27.99,93.38c1.69,.98,3.63,1.52,5.65,1.52h18.23l-12.35-21.64-11.53,20.12Z"/><path class="cls-13" d="M27.6,10.06c1.68-.99,3.63-1.54,5.66-1.53l18.61,.06-12.58,21.61L27.6,10.06Z"/><path class="cls-10" d="M75.76,10.02c-1.64-.97-3.54-1.51-5.53-1.5l-18.36,.06,12.48,21.61,11.41-20.17Z"/><path class="cls-11" d="M14.67,73.26l9.2,15.98c1.01,1.75,2.44,3.16,4.13,4.14l11.53-20.12H14.67Z"/><path class="cls-7" d="M89.13,30.18l-9.25-16.03c-1.01-1.74-2.44-3.15-4.12-4.12l-11.41,20.16h24.78Z"/><polyline class="cls-12" points="64.27 30.18 89.13 30.18 76.74 51.65 64.35 30.18"/><path class="cls-16" d="M27.6,10.06c-1.67,.99-3.08,2.42-4.06,4.18L14.58,30.25l24.73-.07L27.6,10.06Z"/><polygon class="cls-6" points="39.52 73.26 27.04 51.78 51.99 51.7 39.52 73.26"/><path class="cls-2" d="M48.46,154.88c-.16-.17-.39-.36-.69-.56-.3-.2-.66-.39-1.06-.56-.41-.17-.85-.32-1.34-.43-.49-.11-.98-.17-1.49-.17-1.13,0-1.96,.21-2.5,.62-.53,.41-.8,.99-.8,1.72,0,.41,.08,.75,.25,1.02,.17,.26,.43,.49,.78,.69,.35,.2,.79,.37,1.31,.53,.53,.15,1.14,.31,1.84,.49,.86,.21,1.63,.44,2.33,.69,.69,.26,1.28,.57,1.76,.93,.48,.37,.85,.82,1.11,1.35,.26,.53,.4,1.18,.4,1.95,0,.86-.16,1.6-.49,2.22-.33,.62-.77,1.13-1.34,1.52-.57,.39-1.22,.68-1.97,.86-.75,.18-1.55,.27-2.41,.27-1.29,0-2.54-.19-3.74-.58-1.2-.39-2.29-.96-3.26-1.71l1.22-2.29c.21,.21,.5,.44,.89,.69,.39,.26,.84,.49,1.36,.7,.52,.21,1.08,.4,1.68,.55,.61,.15,1.23,.23,1.89,.23,1.05,0,1.86-.18,2.44-.55,.57-.37,.86-.91,.86-1.62,0-.43-.11-.79-.32-1.07-.21-.29-.52-.54-.92-.75-.4-.22-.88-.41-1.46-.59-.57-.17-1.22-.36-1.96-.55-.84-.22-1.58-.46-2.21-.7-.63-.25-1.15-.55-1.56-.9-.42-.35-.73-.76-.94-1.23-.21-.47-.32-1.04-.32-1.71,0-.83,.16-1.56,.48-2.21,.32-.64,.75-1.18,1.3-1.62,.55-.44,1.2-.77,1.95-.99,.75-.22,1.56-.33,2.43-.33,1.15,0,2.21,.18,3.18,.55,.97,.37,1.82,.82,2.56,1.36l-1.22,2.2Z"/><path class="cls-2" d="M71.55,167.85h-2.63v-7c0-1.16-.19-2.01-.57-2.55-.38-.54-.94-.81-1.67-.81s-1.43,.28-2.04,.82c-.61,.55-1.06,1.26-1.32,2.14v7.4h-2.63v-7c0-1.18-.19-2.03-.57-2.57-.38-.53-.93-.8-1.65-.8s-1.43,.27-2.05,.81-1.07,1.25-1.34,2.12v7.42h-2.63v-12.49h2.39v2.51c.49-.88,1.14-1.55,1.95-2.02,.8-.47,1.72-.71,2.76-.71s1.85,.27,2.45,.81,.97,1.22,1.11,2.03c.53-.92,1.19-1.63,1.98-2.11,.8-.48,1.7-.73,2.72-.73,.73,0,1.34,.14,1.83,.42,.49,.28,.87,.65,1.16,1.11,.29,.46,.49,1,.6,1.61,.11,.61,.17,1.26,.17,1.95v7.62Z"/><path class="cls-2" d="M77.66,168.08c-.6,0-1.17-.1-1.68-.3-.52-.2-.96-.47-1.34-.82-.37-.35-.67-.76-.88-1.24-.21-.48-.32-.99-.32-1.55,0-.59,.13-1.12,.38-1.6,.25-.48,.62-.89,1.09-1.24,.47-.35,1.03-.62,1.67-.81,.65-.19,1.36-.29,2.14-.29,.59,0,1.17,.05,1.74,.16,.57,.1,1.09,.24,1.55,.42v-.86c0-.92-.26-1.64-.79-2.16-.53-.52-1.28-.78-2.27-.78-.67,0-1.32,.12-1.97,.37-.64,.25-1.31,.6-1.99,1.06l-.81-1.67c1.61-1.08,3.28-1.62,5.01-1.62s3.06,.44,4.01,1.31c.96,.88,1.43,2.13,1.43,3.77v4.51c0,.56,.23,.84,.69,.86v2.24c-.26,.05-.47,.08-.66,.1-.18,.02-.36,.02-.54,.02-.51,0-.9-.13-1.18-.38-.28-.26-.45-.58-.51-.98l-.07-.79c-.56,.73-1.24,1.29-2.07,1.68-.82,.39-1.7,.59-2.64,.59m.72-1.93c.64,0,1.24-.11,1.8-.35,.57-.23,1.01-.55,1.33-.97,.33-.29,.5-.59,.5-.91v-1.65c-.44-.17-.92-.31-1.42-.41-.5-.1-.99-.14-1.47-.14-.94,0-1.71,.2-2.3,.61-.6,.41-.9,.94-.9,1.61,0,.62,.23,1.14,.69,1.56,.46,.42,1.05,.63,1.77,.63"/><path class="cls-2" d="M94.59,157.63c-1.02,.03-1.92,.27-2.71,.71-.79,.44-1.35,1.06-1.68,1.87v7.64h-2.63v-12.49h2.43v2.79c.43-.86,.99-1.55,1.68-2.07,.69-.52,1.44-.8,2.23-.85h.39c.1,0,.2,0,.27,.02v2.36Z"/><path class="cls-2" d="M103.21,167.2c-.33,.16-.8,.34-1.38,.54-.59,.2-1.22,.3-1.89,.3-.41,0-.8-.05-1.17-.17-.37-.11-.69-.28-.97-.5-.28-.22-.5-.51-.66-.87-.16-.36-.24-.79-.24-1.3v-7.81h-1.65v-2.03h1.65v-4.11h2.63v4.11h2.72v2.03h-2.72v6.97c.03,.45,.17,.77,.42,.97,.25,.2,.55,.3,.92,.3s.72-.06,1.05-.19c.33-.13,.58-.23,.74-.31l.55,2.08Z"/><polygon class="cls-2" points="122.55 153.26 116.91 153.26 116.91 167.85 114.21 167.85 114.21 153.26 108.56 153.26 108.56 150.89 122.55 150.89 122.55 153.26"/><path class="cls-2" d="M127.18,168.08c-.97,0-1.85-.17-2.65-.51-.8-.34-1.48-.81-2.04-1.4-.57-.59-1-1.27-1.31-2.05-.31-.78-.47-1.61-.47-2.48s.16-1.71,.47-2.49c.31-.79,.75-1.48,1.31-2.08,.56-.6,1.24-1.07,2.04-1.41,.8-.34,1.69-.51,2.67-.51s1.85,.17,2.64,.53c.79,.35,1.46,.82,2.02,1.4,.56,.58,.98,1.26,1.28,2.03,.29,.77,.44,1.58,.44,2.42,0,.19,0,.37-.02,.54-.01,.17-.03,.31-.05,.42h-10c.05,.56,.18,1.06,.39,1.5,.21,.45,.49,.83,.84,1.16,.34,.33,.73,.58,1.17,.75,.44,.17,.9,.26,1.37,.26,.35,0,.69-.04,1.04-.13,.34-.09,.66-.21,.94-.38,.29-.17,.54-.37,.76-.61,.22-.24,.4-.5,.53-.79l2.24,.64c-.43,.94-1.14,1.71-2.14,2.3-.99,.6-2.15,.89-3.47,.89m3.8-7.42c-.05-.53-.18-1.01-.39-1.46-.21-.45-.49-.82-.82-1.13-.33-.31-.72-.55-1.17-.73-.44-.18-.91-.26-1.41-.26s-.96,.09-1.4,.26c-.44,.17-.82,.42-1.16,.73-.33,.31-.6,.69-.81,1.13-.21,.45-.33,.93-.38,1.46h7.54Z"/><path class="cls-2" d="M134.67,161.59c0-.88,.15-1.7,.45-2.48,.3-.78,.74-1.46,1.3-2.05s1.24-1.05,2.04-1.4c.79-.34,1.69-.51,2.67-.51,1.29,0,2.4,.28,3.33,.85s1.63,1.32,2.09,2.26l-2.56,.81c-.3-.53-.71-.93-1.22-1.23-.51-.29-1.07-.44-1.69-.44-.53,0-1.01,.1-1.47,.31-.45,.21-.85,.5-1.18,.87-.33,.37-.6,.82-.79,1.33-.19,.51-.29,1.07-.29,1.7s.1,1.17,.3,1.68c.2,.52,.47,.97,.81,1.35,.34,.38,.74,.68,1.19,.9,.45,.22,.93,.32,1.44,.32,.32,0,.64-.04,.96-.13,.32-.09,.61-.21,.87-.37,.26-.16,.49-.34,.69-.55,.2-.21,.35-.43,.44-.67l2.58,.76c-.41,.94-1.11,1.71-2.08,2.3-.97,.6-2.12,.9-3.44,.9-.97,0-1.85-.18-2.65-.53-.8-.35-1.48-.82-2.04-1.42-.57-.6-1-1.28-1.31-2.07-.31-.78-.47-1.61-.47-2.48"/><path class="cls-2" d="M159.79,167.85h-2.63v-7c0-1.15-.2-1.99-.61-2.54-.41-.55-.99-.82-1.76-.82-.37,0-.73,.07-1.1,.22-.37,.14-.71,.35-1.04,.61s-.62,.57-.87,.93c-.26,.36-.45,.75-.57,1.18v7.42h-2.63v-17.43h2.63v7.45c.48-.86,1.13-1.53,1.94-2.01,.82-.48,1.72-.72,2.69-.72,.78,0,1.42,.14,1.92,.42,.5,.28,.9,.65,1.21,1.11,.3,.46,.51,1,.63,1.61,.12,.61,.18,1.26,.18,1.95v7.62Z"/><polygon class="cls-2" points="182.85 167.85 182.85 155.65 177.82 164.89 176.34 164.89 171.28 155.65 171.28 167.85 168.6 167.85 168.6 150.89 171.47 150.89 177.08 161.26 182.69 150.89 185.55 150.89 185.55 167.85 182.85 167.85"/><path class="cls-2" d="M192,168.08c-.6,0-1.17-.1-1.68-.3-.52-.2-.96-.47-1.34-.82-.37-.35-.67-.76-.88-1.24-.21-.48-.32-.99-.32-1.55,0-.59,.13-1.12,.38-1.6,.25-.48,.62-.89,1.09-1.24,.47-.35,1.03-.62,1.67-.81,.65-.19,1.36-.29,2.14-.29,.59,0,1.17,.05,1.74,.16,.57,.1,1.09,.24,1.55,.42v-.86c0-.92-.26-1.64-.79-2.16-.53-.52-1.28-.78-2.27-.78-.67,0-1.32,.12-1.97,.37-.65,.25-1.31,.6-1.99,1.06l-.81-1.67c1.61-1.08,3.28-1.62,5.01-1.62s3.06,.44,4.01,1.31c.96,.88,1.43,2.13,1.43,3.77v4.51c0,.56,.23,.84,.69,.86v2.24c-.26,.05-.47,.08-.66,.1-.18,.02-.36,.02-.54,.02-.51,0-.9-.13-1.18-.38-.28-.26-.45-.58-.51-.98l-.07-.79c-.56,.73-1.24,1.29-2.07,1.68-.82,.39-1.7,.59-2.64,.59m.72-1.93c.64,0,1.24-.11,1.8-.35,.57-.23,1.01-.55,1.33-.97,.33-.29,.5-.59,.5-.91v-1.65c-.44-.17-.92-.31-1.42-.41-.5-.1-.99-.14-1.47-.14-.94,0-1.71,.2-2.3,.61-.6,.41-.9,.94-.9,1.61,0,.62,.23,1.14,.69,1.56s1.05,.63,1.77,.63"/><path class="cls-2" d="M206.99,168.08c-.84,0-1.62-.17-2.34-.51-.72-.34-1.34-.81-1.86-1.4-.52-.59-.93-1.28-1.23-2.07-.29-.79-.44-1.64-.44-2.54s.14-1.7,.42-2.47c.28-.77,.67-1.45,1.17-2.04,.5-.59,1.09-1.05,1.77-1.4,.68-.34,1.42-.51,2.23-.51,1,0,1.89,.24,2.65,.73,.76,.49,1.36,1.1,1.79,1.85v-7.3h2.63v14.32c0,.3,.05,.52,.15,.65,.1,.13,.29,.2,.56,.21v2.24c-.27,.05-.49,.08-.66,.1-.17,.02-.31,.02-.42,.02-.52,0-.95-.14-1.29-.41-.33-.27-.52-.62-.55-1.05l-.05-.93c-.46,.78-1.09,1.39-1.89,1.84-.8,.45-1.68,.67-2.65,.67m.64-2.24c.38,0,.76-.06,1.15-.19,.38-.13,.73-.3,1.05-.53,.32-.22,.59-.49,.82-.79,.23-.3,.39-.63,.49-.98v-3.27c-.14-.4-.35-.76-.61-1.1-.26-.33-.56-.62-.89-.86-.33-.24-.69-.42-1.06-.55-.37-.13-.75-.19-1.13-.19-.53,0-1.01,.12-1.45,.36-.44,.24-.82,.56-1.13,.96-.32,.4-.57,.85-.75,1.36-.18,.51-.28,1.04-.28,1.58,0,.57,.1,1.11,.3,1.62,.2,.51,.47,.95,.82,1.34,.35,.38,.75,.68,1.21,.91,.45,.22,.94,.33,1.47,.33"/><path class="cls-2" d="M222.53,168.08c-.97,0-1.85-.17-2.65-.51-.8-.34-1.48-.81-2.04-1.4-.57-.59-1-1.27-1.31-2.05-.31-.78-.47-1.61-.47-2.48s.16-1.71,.47-2.49c.31-.79,.75-1.48,1.31-2.08,.56-.6,1.24-1.07,2.04-1.41,.8-.34,1.69-.51,2.67-.51s1.85,.17,2.64,.53c.79,.35,1.46,.82,2.02,1.4,.56,.58,.98,1.26,1.28,2.03,.29,.77,.44,1.58,.44,2.42,0,.19,0,.37-.02,.54-.02,.17-.03,.31-.05,.42h-10c.05,.56,.18,1.06,.39,1.5,.21,.45,.49,.83,.84,1.16,.34,.33,.73,.58,1.17,.75,.44,.17,.89,.26,1.37,.26,.35,0,.7-.04,1.04-.13,.34-.09,.66-.21,.94-.38,.29-.17,.54-.37,.76-.61,.22-.24,.4-.5,.52-.79l2.24,.64c-.43,.94-1.14,1.71-2.14,2.3-.99,.6-2.15,.89-3.47,.89m3.8-7.42c-.05-.53-.18-1.01-.39-1.46-.21-.45-.49-.82-.82-1.13-.33-.31-.72-.55-1.17-.73-.45-.18-.92-.26-1.41-.26s-.96,.09-1.4,.26c-.44,.17-.83,.42-1.16,.73-.33,.31-.6,.69-.81,1.13-.21,.45-.34,.93-.38,1.46h7.55Z"/><path class="cls-2" d="M246.86,154.88c-.16-.17-.39-.36-.69-.56-.3-.2-.66-.39-1.06-.56-.4-.17-.85-.32-1.34-.43-.48-.11-.98-.17-1.49-.17-1.13,0-1.96,.21-2.49,.62-.53,.41-.8,.99-.8,1.72,0,.41,.08,.75,.25,1.02,.17,.26,.43,.49,.77,.69,.35,.2,.79,.37,1.31,.53,.52,.15,1.14,.31,1.84,.49,.86,.21,1.64,.44,2.33,.69,.69,.26,1.28,.57,1.75,.93,.48,.37,.85,.82,1.11,1.35,.26,.53,.39,1.18,.39,1.95,0,.86-.16,1.6-.49,2.22-.33,.62-.77,1.13-1.34,1.52-.57,.39-1.22,.68-1.97,.86-.75,.18-1.55,.27-2.41,.27-1.29,0-2.53-.19-3.74-.58-1.2-.39-2.29-.96-3.26-1.71l1.22-2.29c.21,.21,.51,.44,.89,.69,.39,.26,.84,.49,1.36,.7,.52,.21,1.08,.4,1.68,.55,.61,.15,1.23,.23,1.89,.23,1.05,0,1.86-.18,2.43-.55,.57-.37,.86-.91,.86-1.62,0-.43-.11-.79-.32-1.07-.21-.29-.52-.54-.92-.75-.4-.22-.88-.41-1.46-.59-.57-.17-1.23-.36-1.96-.55-.84-.22-1.58-.46-2.21-.7-.63-.25-1.15-.55-1.56-.9-.42-.35-.73-.76-.94-1.23-.21-.47-.32-1.04-.32-1.71,0-.83,.16-1.56,.48-2.21,.32-.64,.75-1.18,1.3-1.62,.55-.44,1.2-.77,1.95-.99,.75-.22,1.56-.33,2.43-.33,1.15,0,2.2,.18,3.18,.55,.97,.37,1.82,.82,2.55,1.36l-1.22,2.2Z"/><path class="cls-2" d="M250.85,150.42h2.63v2.89h-2.63v-2.89Zm0,4.94h2.63v12.49h-2.63v-12.49Z"/><path class="cls-2" d="M275.49,167.85h-2.63v-7c0-1.16-.19-2.01-.57-2.55-.38-.54-.94-.81-1.67-.81s-1.43,.28-2.04,.82c-.61,.55-1.06,1.26-1.32,2.14v7.4h-2.63v-7c0-1.18-.19-2.03-.57-2.57-.38-.53-.93-.8-1.65-.8s-1.43,.27-2.05,.81-1.07,1.25-1.34,2.12v7.42h-2.63v-12.49h2.39v2.51c.49-.88,1.14-1.55,1.95-2.02,.8-.47,1.72-.71,2.76-.71s1.85,.27,2.45,.81c.6,.54,.97,1.22,1.11,2.03,.52-.92,1.18-1.63,1.98-2.11,.8-.48,1.7-.73,2.72-.73,.73,0,1.34,.14,1.83,.42,.48,.28,.87,.65,1.16,1.11,.29,.46,.49,1,.6,1.61,.11,.61,.17,1.26,.17,1.95v7.62Z"/><path class="cls-2" d="M285.37,168.08c-1,0-1.89-.24-2.65-.72-.76-.48-1.37-1.1-1.81-1.86v7.42h-2.63v-17.57h2.32v2.24c.48-.75,1.09-1.34,1.85-1.79,.76-.45,1.61-.67,2.57-.67,.86,0,1.65,.17,2.36,.52,.72,.35,1.34,.82,1.86,1.41,.53,.59,.93,1.27,1.23,2.05,.3,.78,.44,1.6,.44,2.46,0,.91-.14,1.76-.41,2.54-.27,.79-.65,1.47-1.15,2.05-.49,.58-1.08,1.04-1.75,1.39-.68,.34-1.42,.51-2.23,.51m-.86-2.24c.56,0,1.06-.12,1.52-.36,.45-.24,.84-.56,1.17-.96,.33-.4,.58-.85,.75-1.36,.17-.51,.26-1.03,.26-1.58,0-.57-.1-1.11-.3-1.62-.2-.51-.47-.95-.81-1.34-.34-.38-.75-.68-1.23-.91-.48-.22-.99-.33-1.55-.33-.33,0-.68,.06-1.05,.19-.37,.13-.71,.3-1.03,.52-.32,.22-.6,.48-.83,.78-.24,.3-.41,.62-.5,.97v3.27c.16,.38,.37,.74,.62,1.08,.25,.33,.54,.62,.85,.86,.31,.24,.65,.43,1.02,.57,.37,.14,.74,.22,1.12,.22"/><path class="cls-2" d="M293.06,150.42h2.63v13.82c0,.46,.12,.82,.36,1.09,.24,.26,.57,.39,1,.39,.17,0,.38-.03,.61-.1,.23-.06,.45-.14,.66-.21l.38,2.05c-.38,.17-.84,.31-1.36,.42-.53,.1-.99,.16-1.41,.16-.91,0-1.61-.25-2.11-.74-.5-.49-.75-1.19-.75-2.1v-14.78Z"/><path class="cls-2" d="M305.64,168.08c-.97,0-1.85-.17-2.65-.51-.8-.34-1.48-.81-2.04-1.4-.57-.59-1-1.27-1.31-2.05-.31-.78-.47-1.61-.47-2.48s.16-1.71,.47-2.49c.31-.79,.75-1.48,1.31-2.08,.56-.6,1.24-1.07,2.04-1.41,.8-.34,1.69-.51,2.67-.51s1.85,.17,2.64,.53c.79,.35,1.46,.82,2.02,1.4,.56,.58,.98,1.26,1.28,2.03,.29,.77,.44,1.58,.44,2.42,0,.19,0,.37-.02,.54-.02,.17-.03,.31-.05,.42h-10c.05,.56,.18,1.06,.39,1.5,.21,.45,.49,.83,.84,1.16,.34,.33,.73,.58,1.17,.75,.44,.17,.89,.26,1.37,.26,.35,0,.7-.04,1.04-.13,.34-.09,.66-.21,.94-.38,.29-.17,.54-.37,.76-.61,.22-.24,.4-.5,.52-.79l2.24,.64c-.43,.94-1.14,1.71-2.14,2.3-.99,.6-2.15,.89-3.47,.89m3.8-7.42c-.05-.53-.18-1.01-.39-1.46-.21-.45-.49-.82-.82-1.13-.33-.31-.72-.55-1.17-.73-.45-.18-.92-.26-1.41-.26s-.96,.09-1.4,.26c-.44,.17-.83,.42-1.16,.73-.33,.31-.6,.69-.81,1.13-.21,.45-.34,.93-.38,1.46h7.55Z"/><rect class="cls-2" x="20.71" y="112.63" width="1.07" height="21.7"/><polygon class="cls-2" points="39.41 114.64 39.41 134.32 38.34 134.32 38.34 112.63 39.14 112.63 55.09 132.64 55.09 112.63 56.16 112.63 56.16 134.32 55.12 134.32 39.41 114.64"/><polygon class="cls-2" points="87.66 113.6 79.54 113.6 79.54 134.32 78.47 134.32 78.47 113.6 70.34 113.6 70.34 112.63 87.66 112.63 87.66 113.6"/><polygon class="cls-2" points="116.18 133.35 116.18 134.32 101.84 134.32 101.84 112.63 115.9 112.63 115.9 113.6 102.91 113.6 102.91 122.74 114.28 122.74 114.28 123.72 102.91 123.72 102.91 133.35 116.18 133.35"/><path class="cls-2" d="M147.13,130.78c-2.2,2.47-4.73,3.7-7.58,3.7-1.49,0-2.86-.32-4.11-.96-1.25-.64-2.33-1.48-3.22-2.52-.9-1.04-1.6-2.22-2.11-3.53-.51-1.31-.76-2.64-.76-3.99,0-1.42,.24-2.8,.73-4.13,.49-1.32,1.18-2.49,2.06-3.51,.88-1.02,1.93-1.83,3.15-2.45,1.21-.61,2.54-.92,3.99-.92,1.1,0,2.09,.12,2.96,.35,.88,.23,1.65,.56,2.32,.98,.67,.42,1.25,.92,1.74,1.5,.49,.58,.91,1.22,1.25,1.91l-.89,.46c-.8-1.49-1.82-2.56-3.09-3.21-1.26-.65-2.71-.98-4.34-.98-1.36,0-2.59,.29-3.68,.87-1.09,.58-2.02,1.34-2.78,2.28-.76,.94-1.35,2-1.76,3.19-.41,1.19-.61,2.41-.61,3.65,0,1.33,.24,2.59,.72,3.79,.48,1.2,1.13,2.26,1.96,3.18,.82,.92,1.8,1.65,2.92,2.2,1.12,.55,2.32,.83,3.61,.83,1.37,0,2.66-.32,3.9-.95,1.23-.63,2.44-1.63,3.62-2.99v-4.71h-5.01v-.92h5.99v10.42h-.98v-3.54Z"/><path class="cls-2" d="M163.55,134.32v-21.7h8.92c.9,0,1.73,.19,2.49,.58,.76,.39,1.42,.89,1.97,1.51,.55,.62,.98,1.33,1.28,2.12,.3,.8,.46,1.6,.46,2.42s-.13,1.63-.38,2.38c-.25,.75-.62,1.43-1.08,2.02-.47,.59-1.03,1.08-1.68,1.47-.65,.39-1.38,.62-2.17,.7l5.44,8.5h-1.22l-5.38-8.37h-7.58v8.37h-1.07Zm1.07-9.35h8.04c.75,0,1.44-.16,2.06-.49,.62-.33,1.15-.75,1.57-1.28,.43-.53,.76-1.14,.99-1.83,.23-.69,.35-1.39,.35-2.11s-.14-1.44-.41-2.12c-.28-.68-.65-1.28-1.12-1.8-.47-.52-1.02-.94-1.65-1.25-.63-.32-1.3-.47-2.02-.47h-7.82v11.37Z"/><path class="cls-2" d="M200.52,112.63h.92l9.32,21.7h-1.13l-3.21-7.49h-10.88l-3.21,7.49h-1.16l9.35-21.7Zm5.56,13.29l-5.1-11.95-5.13,11.95h10.24Z"/><polygon class="cls-2" points="237.75 113.6 229.62 113.6 229.62 134.32 228.55 134.32 228.55 113.6 220.42 113.6 220.42 112.63 237.75 112.63 237.75 113.6"/><rect class="cls-2" x="251.93" y="112.63" width="1.07" height="21.7"/><path class="cls-2" d="M278.18,134.48c-1.51,0-2.88-.32-4.13-.95-1.24-.63-2.31-1.46-3.21-2.48-.9-1.02-1.59-2.19-2.08-3.51-.49-1.32-.73-2.68-.73-4.06s.26-2.83,.78-4.16c.52-1.32,1.23-2.5,2.14-3.52,.91-1.02,1.98-1.83,3.21-2.43,1.23-.6,2.57-.9,4.02-.9s2.88,.32,4.13,.96c1.24,.64,2.31,1.48,3.19,2.52,.89,1.04,1.57,2.22,2.06,3.53,.49,1.31,.73,2.64,.73,3.99,0,1.47-.26,2.86-.78,4.19-.52,1.32-1.23,2.49-2.14,3.5-.91,1.01-1.98,1.81-3.21,2.41-1.23,.6-2.56,.9-3.99,.9m-9.08-11c0,1.3,.22,2.56,.67,3.76,.45,1.2,1.07,2.27,1.88,3.19,.8,.93,1.76,1.67,2.87,2.22,1.11,.55,2.33,.82,3.65,.82s2.6-.29,3.71-.87c1.11-.58,2.06-1.34,2.86-2.28,.8-.94,1.41-2.01,1.83-3.21,.43-1.2,.64-2.41,.64-3.64,0-1.3-.23-2.56-.69-3.76-.46-1.2-1.09-2.27-1.9-3.19-.8-.93-1.76-1.66-2.87-2.22-1.11-.55-2.31-.82-3.59-.82-1.36,0-2.6,.29-3.71,.87-1.11,.58-2.06,1.34-2.86,2.28-.8,.94-1.41,2-1.85,3.19-.44,1.19-.66,2.41-.66,3.65"/><polygon class="cls-2" points="304.4 114.64 304.4 134.32 303.33 134.32 303.33 112.63 304.12 112.63 320.07 132.64 320.07 112.63 321.14 112.63 321.14 134.32 320.1 134.32 304.4 114.64"/></g></g></svg>